<svg width="20" height="23" viewBox="0 0 20 23" fill="none" xmlns="http://www.w3.org/2000/svg">
<path d="M17.259 15.3093C12.6007 16.4848 11.4838 17.6952 10.43 22.8238C10.3817 23.0588 10.0394 23.0588 9.99109 22.8238C8.93731 17.6953 7.82035 16.4849 3.16209 15.3093C2.93816 15.2527 2.93816 14.9407 3.16209 14.8842C7.82035 13.7086 8.9373 12.4982 9.99109 7.36958C10.0394 7.13462 10.3817 7.13462 10.43 7.36958C11.4838 12.4982 12.6007 13.7086 17.259 14.8842C17.4829 14.9407 17.4829 15.2528 17.259 15.3093Z" fill="#FFBC00"/>
<path d="M5.69969 7.1139C3.83842 7.58363 3.39212 8.06725 2.97108 10.1164C2.95179 10.2103 2.815 10.2103 2.79572 10.1164C2.37466 8.06725 1.92837 7.58363 0.0671092 7.1139C-0.0223697 7.09133 -0.0223697 6.96664 0.0671092 6.94405C1.92837 6.47433 2.37467 5.9907 2.79572 3.94151C2.815 3.84762 2.95179 3.84762 2.97108 3.94151C3.39214 5.9907 3.83842 6.47433 5.69969 6.94405C5.78916 6.96664 5.78916 7.09133 5.69969 7.1139Z" fill="#FFBC00"/>
<path d="M11.7128 1.46121C10.8741 1.67287 10.673 1.89078 10.4833 2.81415C10.4746 2.85646 10.413 2.85646 10.4043 2.81415C10.2146 1.89078 10.0135 1.67285 9.17478 1.46121C9.13445 1.45103 9.13445 1.39485 9.17478 1.38468C10.0135 1.17301 10.2146 0.955096 10.4043 0.0317292C10.413 -0.0105764 10.4746 -0.0105764 10.4833 0.0317292C10.673 0.955096 10.8741 1.17303 11.7128 1.38468C11.7532 1.39485 11.7532 1.45103 11.7128 1.46121Z" fill="#FFBC00"/>
<path d="M19.9577 7.14877C18.7597 7.45111 18.4724 7.7624 18.2014 9.08138C18.189 9.1418 18.101 9.1418 18.0886 9.08138C17.8175 7.7624 17.5303 7.45111 16.3323 7.14877C16.2747 7.13423 16.2747 7.05397 16.3323 7.03945C17.5303 6.73711 17.8175 6.42582 18.0886 5.10684C18.101 5.04642 18.189 5.04642 18.2014 5.10684C18.4724 6.42582 18.7597 6.73711 19.9577 7.03945C20.0153 7.05399 20.0153 7.13423 19.9577 7.14877Z" fill="#FFBC00"/>
</svg>
