<svg width="48" height="64" viewBox="0 0 48 64" fill="none" xmlns="http://www.w3.org/2000/svg">
  <path d="M24 3C20.6863 3 18 5.68629 18 9C18 12.3137 20.6863 15 24 15C27.3137 15 30 12.3137 30 9C30 5.68629 27.3137 3 24 3Z" fill="#111111"/>
  <path d="M18.6 17C15.5072 17 13 19.5072 13 22.6V33.5C13 34.8807 14.1193 36 15.5 36C16.8807 36 18 34.8807 18 33.5V25H19.4L17.75 59.0341C17.6839 60.3977 18.7454 61.5564 20.109 61.6225C21.4726 61.6886 22.6314 60.6271 22.6974 59.2635L24 34.6L25.3026 59.2635C25.3686 60.6271 26.5274 61.6886 27.891 61.6225C29.2546 61.5564 30.3161 60.3977 30.25 59.0341L28.6 25H30V33.5C30 34.8807 31.1193 36 32.5 36C33.8807 36 35 34.8807 35 33.5V22.6C35 19.5072 32.4928 17 29.4 17H18.6Z" fill="#111111"/>
</svg>
